<svg width="391" height="188" viewBox="0 0 391 188" fill="none" xmlns="http://www.w3.org/2000/svg">
<rect x="1" y="1" width="389" height="186" fill="#C4C4C4" fill-opacity="0.3" stroke="black" stroke-opacity="0.3" stroke-width="2" stroke-dasharray="2 2"/>
<g clip-path="url(#clip0)">
<path d="M203.812 96.5625C203.812 98.6345 202.989 100.622 201.524 102.087C200.059 103.552 198.072 104.375 196 104.375C193.928 104.375 191.941 103.552 190.476 102.087C189.011 100.622 188.188 98.6345 188.188 96.5625C188.188 94.4905 189.011 92.5034 190.476 91.0382C191.941 89.5731 193.928 88.75 196 88.75C198.072 88.75 200.059 89.5731 201.524 91.0382C202.989 92.5034 203.812 94.4905 203.812 96.5625Z" fill="black" fill-opacity="0.2"/>
<path d="M177.25 82.5C175.592 82.5 174.003 83.1585 172.831 84.3306C171.658 85.5027 171 87.0924 171 88.75V107.5C171 109.158 171.658 110.747 172.831 111.919C174.003 113.092 175.592 113.75 177.25 113.75H214.75C216.408 113.75 217.997 113.092 219.169 111.919C220.342 110.747 221 109.158 221 107.5V88.75C221 87.0924 220.342 85.5027 219.169 84.3306C217.997 83.1585 216.408 82.5 214.75 82.5H211.088C209.43 82.4996 207.841 81.8409 206.669 80.6688L204.081 78.0812C202.909 76.9091 201.32 76.2504 199.663 76.25H192.337C190.68 76.2504 189.091 76.9091 187.919 78.0812L185.331 80.6688C184.159 81.8409 182.57 82.4996 180.912 82.5H177.25ZM178.812 88.75C178.398 88.75 178.001 88.5854 177.708 88.2924C177.415 87.9993 177.25 87.6019 177.25 87.1875C177.25 86.7731 177.415 86.3757 177.708 86.0826C178.001 85.7896 178.398 85.625 178.812 85.625C179.227 85.625 179.624 85.7896 179.917 86.0826C180.21 86.3757 180.375 86.7731 180.375 87.1875C180.375 87.6019 180.21 87.9993 179.917 88.2924C179.624 88.5854 179.227 88.75 178.812 88.75ZM206.938 96.5625C206.938 99.4633 205.785 102.245 203.734 104.296C201.683 106.348 198.901 107.5 196 107.5C193.099 107.5 190.317 106.348 188.266 104.296C186.215 102.245 185.062 99.4633 185.062 96.5625C185.062 93.6617 186.215 90.8797 188.266 88.8285C190.317 86.7773 193.099 85.625 196 85.625C198.901 85.625 201.683 86.7773 203.734 88.8285C205.785 90.8797 206.938 93.6617 206.938 96.5625Z" fill="black" fill-opacity="0.2"/>
</g>
<defs>
<clipPath id="clip0">
<rect width="50" height="50" fill="white" transform="translate(171 70)"/>
</clipPath>
</defs>
</svg>
