<svg width="23" height="16" viewBox="0 0 23 16" fill="none" xmlns="http://www.w3.org/2000/svg">
<path d="M22.3641 7.42969C20.2457 3.29648 16.052 0.5 11.25 0.5C6.44805 0.5 2.25313 3.29844 0.135939 7.43008C0.0465804 7.60684 2.28882e-05 7.80213 2.28882e-05 8.0002C2.28882e-05 8.19826 0.0465804 8.39355 0.135939 8.57031C2.2543 12.7035 6.44805 15.5 11.25 15.5C16.052 15.5 20.2469 12.7016 22.3641 8.56992C22.4534 8.39316 22.5 8.19787 22.5 7.9998C22.5 7.80174 22.4534 7.60645 22.3641 7.42969ZM11.25 13.625C10.1375 13.625 9.04994 13.2951 8.12492 12.677C7.19989 12.0589 6.47892 11.1804 6.05318 10.1526C5.62744 9.12476 5.51604 7.99376 5.73308 6.90262C5.95013 5.81147 6.48586 4.80919 7.27253 4.02252C8.0592 3.23585 9.06147 2.70012 10.1526 2.48308C11.2438 2.26604 12.3748 2.37743 13.4026 2.80318C14.4304 3.22892 15.3089 3.94989 15.927 4.87492C16.5451 5.79994 16.875 6.88748 16.875 8C16.8754 8.73879 16.7301 9.4704 16.4476 10.153C16.165 10.8356 15.7507 11.4559 15.2283 11.9783C14.7059 12.5007 14.0856 12.915 13.403 13.1976C12.7204 13.4801 11.9888 13.6254 11.25 13.625ZM11.25 4.25C10.9153 4.25468 10.5827 4.30448 10.2613 4.39805C10.5263 4.75808 10.6534 5.20113 10.6197 5.64685C10.586 6.09258 10.3936 6.51146 10.0775 6.82754C9.76146 7.14362 9.34258 7.33595 8.89685 7.36967C8.45113 7.40339 8.00808 7.27626 7.64805 7.01133C7.44304 7.76664 7.48004 8.56722 7.75386 9.30039C8.02768 10.0336 8.52452 10.6624 9.17446 11.0984C9.82439 11.5344 10.5947 11.7556 11.3769 11.7309C12.1592 11.7062 12.914 11.4368 13.5351 10.9607C14.1562 10.4845 14.6124 9.82555 14.8394 9.07656C15.0664 8.32756 15.0528 7.52624 14.8005 6.78538C14.5482 6.04452 14.07 5.40142 13.4331 4.94661C12.7961 4.49179 12.0326 4.24816 11.25 4.25Z" fill="white"/>
</svg>
