<svg width="25" height="25" viewBox="0 0 25 25" fill="none" xmlns="http://www.w3.org/2000/svg">
<path d="M15.5208 12.5C15.5208 13.3011 15.2026 14.0695 14.6361 14.636C14.0695 15.2025 13.3012 15.5208 12.5 15.5208C11.6988 15.5208 10.9305 15.2025 10.364 14.636C9.79744 14.0695 9.47917 13.3011 9.47917 12.5C9.47917 11.6988 9.79744 10.9304 10.364 10.3639C10.9305 9.79739 11.6988 9.47913 12.5 9.47913C13.3012 9.47913 14.0695 9.79739 14.6361 10.3639C15.2026 10.9304 15.5208 11.6988 15.5208 12.5ZM24.5833 12.5C24.5833 19.17 19.17 24.5833 12.5 24.5833C5.83 24.5833 0.416672 19.17 0.416672 12.5C0.416672 5.82996 5.83 0.416626 12.5 0.416626C19.17 0.416626 24.5833 5.82996 24.5833 12.5ZM22.1667 12.5H17.3333C17.3333 9.82954 15.1704 7.66663 12.5 7.66663C9.82959 7.66663 7.66667 9.82954 7.66667 12.5H2.83334C2.83334 17.8287 7.17125 22.1666 12.5 22.1666C17.8288 22.1666 22.1667 17.8287 22.1667 12.5Z" fill="white"/>
</svg>
