<svg width="50" height="50" viewBox="0 0 50 50" fill="none" xmlns="http://www.w3.org/2000/svg">
<g clip-path="url(#clip0)">
<path d="M32.8125 26.5625C32.8125 28.6345 31.9894 30.6216 30.5243 32.0868C29.0591 33.5519 27.072 34.375 25 34.375C22.928 34.375 20.9409 33.5519 19.4757 32.0868C18.0106 30.6216 17.1875 28.6345 17.1875 26.5625C17.1875 24.4905 18.0106 22.5034 19.4757 21.0382C20.9409 19.5731 22.928 18.75 25 18.75C27.072 18.75 29.0591 19.5731 30.5243 21.0382C31.9894 22.5034 32.8125 24.4905 32.8125 26.5625Z" fill="black" fill-opacity="0.2"/>
<path d="M6.25 12.5C4.5924 12.5 3.00269 13.1585 1.83058 14.3306C0.65848 15.5027 0 17.0924 0 18.75L0 37.5C0 39.1576 0.65848 40.7473 1.83058 41.9194C3.00269 43.0915 4.5924 43.75 6.25 43.75H43.75C45.4076 43.75 46.9973 43.0915 48.1694 41.9194C49.3415 40.7473 50 39.1576 50 37.5V18.75C50 17.0924 49.3415 15.5027 48.1694 14.3306C46.9973 13.1585 45.4076 12.5 43.75 12.5H40.0875C38.43 12.4996 36.8406 11.8409 35.6687 10.6688L33.0813 8.08125C31.9094 6.90907 30.32 6.25035 28.6625 6.25H21.3375C19.68 6.25035 18.0906 6.90907 16.9188 8.08125L14.3313 10.6688C13.1594 11.8409 11.57 12.4996 9.9125 12.5H6.25ZM7.8125 18.75C7.3981 18.75 7.00067 18.5854 6.70765 18.2924C6.41462 17.9993 6.25 17.6019 6.25 17.1875C6.25 16.7731 6.41462 16.3757 6.70765 16.0826C7.00067 15.7896 7.3981 15.625 7.8125 15.625C8.2269 15.625 8.62433 15.7896 8.91735 16.0826C9.21038 16.3757 9.375 16.7731 9.375 17.1875C9.375 17.6019 9.21038 17.9993 8.91735 18.2924C8.62433 18.5854 8.2269 18.75 7.8125 18.75ZM35.9375 26.5625C35.9375 29.4633 34.7852 32.2453 32.734 34.2965C30.6828 36.3477 27.9008 37.5 25 37.5C22.0992 37.5 19.3172 36.3477 17.266 34.2965C15.2148 32.2453 14.0625 29.4633 14.0625 26.5625C14.0625 23.6617 15.2148 20.8797 17.266 18.8285C19.3172 16.7773 22.0992 15.625 25 15.625C27.9008 15.625 30.6828 16.7773 32.734 18.8285C34.7852 20.8797 35.9375 23.6617 35.9375 26.5625Z" fill="black" fill-opacity="0.2"/>
</g>
<defs>
<clipPath id="clip0">
<rect width="50" height="50" fill="white"/>
</clipPath>
</defs>
</svg>
